<svg style="fill-rule:evenodd;clip-rule:evenodd;stroke-linejoin:round;stroke-miterlimit:2;" xml:space="preserve" xmlns:xlink="http://www.w3.org/1999/xlink" xmlns="http://www.w3.org/2000/svg" version="1.1" viewBox="0 0 4500 5625">
    <g transform="matrix(4.166667,0,0,4.166667,0,0)" id="Page-1">
        <rect style="fill:none;" height="1350" width="1080" y="0" x="0"></rect>
        <g id="Layer-1">
            <g transform="matrix(0.24,0,0,0.24,65.85134,155.876841)">
                <text style="font-family:'AkkuratPro-Regular', 'Akkurat Pro';font-size:862.01px;fill:currentColor;" y="827.472px" x="86.647px">R<tspan y="827.472px 827.472px 827.472px 827.472px" x="625.834px 845.215px 1372.765px 1921.866px">ISØR</tspan></text>
                <text style="font-family:'AkkuratPro-Regular', 'Akkurat Pro';font-size:862.01px;fill:currentColor;" y="1650.692px" x="86.647px">K<tspan y="1650.692px 1650.692px 1650.692px 1650.692px 1650.692px" x="679.709px 1196.915px 1917.556px 2638.196px 3139.024px">AMMER</tspan></text>
                <text style="font-family:'AkkuratPro-Regular', 'Akkurat Pro';font-size:862.01px;fill:currentColor;" y="2473.911px" x="590.06px">M<tspan y="2473.911px 2473.911px 2473.911px 2473.911px 2473.911px" x="1319.321px 1874.455px 2392.523px 2602.854px 3152.816px">USIKK</tspan></text>
                <g transform="matrix(862.01,0,0,862.01,3724.3287,3297.130977)">
                </g>
                <text style="font-family:'AkkuratPro-Regular', 'Akkurat Pro';font-size:862.01px;fill:currentColor;" y="3297.131px" x="1746.016px">F<tspan y="3297.131px 3297.131px 3297.131px" x="2225.293px 2733.017px 3260.567px">EST</tspan></text>
            </g>
            <g transform="matrix(0.24,0,0,0.24,252.479952,64.785765)">
                <g transform="matrix(215.5025,0,0,215.5025,2238.2725,241.684314)">
                </g>
                <text style="font-family:'AkkuratPro-Bold', 'Akkurat Pro';font-weight:700;font-size:215.503px;fill:currentColor;" y="241.684px" x="531.493px">2<tspan y="241.684px 241.684px 241.684px 241.684px 241.684px 241.684px 241.684px 241.684px 241.684px 241.684px 241.684px" x="648.726px 765.959px 820.051px 918.966px 1035.984px 1153.002px 1216.144px 1261.184px 1364.41px 1506.857px 1658.355px">3.-28. JUNI</tspan> 2<tspan y="241.684px 241.684px 241.684px" x="1883.124px 2000.358px 2115.436px">026</tspan></text>
            </g>
            <g transform="matrix(0.24,0,0,0.24,369.609356,763.501003)">
                <g transform="matrix(862.01,0,0,862.01,1481.08764,1650.252072)">
                </g>
                <text style="font-family:'DomaineText-Regular', 'Domaine Text', sans-serif;font-size:862.01px;fill:#FB534B;" y="1650.252px" x="486.328px">3<tspan y="1650.252px" x="973.364px">6</tspan></text>
            </g>
            <g transform="matrix(1,0,0,1,331.1465,126.3846)">
                <path style="fill:#FB534B;fill-rule:nonzero;" d="M0,-24.889C-8.389,-27.868 -18.585,-30.041 -33.306,-30.041C-57.165,-30.041 -69.143,-24.334 -80.796,-18.741C-91.477,-13.613 -101.638,-8.692 -122.25,-8.692C-142.863,-8.692 -153.023,-13.613 -163.705,-18.741C-175.357,-24.334 -187.334,-30.041 -211.194,-30.041C-225.915,-30.041 -236.111,-27.868 -244.5,-24.889L-244.5,-9.945C-236.179,-13.459 -226.587,-16.18 -211.194,-16.18C-190.582,-16.18 -180.37,-11.301 -169.687,-6.173C-158.036,-0.581 -146.11,5.152 -122.25,5.152C-98.39,5.152 -86.464,-0.581 -74.812,-6.173C-64.13,-11.301 -53.918,-16.18 -33.306,-16.18C-17.912,-16.18 -8.32,-13.459 0,-9.945L0,-24.889Z"></path>
            </g>
            <g transform="matrix(1,0,0,1,933.5209,269.2518)">
                <path style="fill:#FB534B;fill-rule:nonzero;" d="M0,19.261L-40.106,-20.843L-81.178,20.23L-122.25,-20.843L-163.323,20.23L-204.394,-20.843L-244.5,19.261L-244.5,39.138L-204.394,-0.968L-163.323,40.104L-122.25,-0.968L-81.178,40.104L-40.106,-0.968L0,39.136L0,19.261Z"></path>
            </g>
            <g transform="matrix(-1,0,0,1,700.916,396.583)">
                <rect style="fill:#FB534B;" height="13.843" width="244.5" y="469.787" x="228.208"></rect>
            </g>
            <g transform="matrix(1,0,0,1,480.3335,1200.516)">
                <path style="fill:#FB534B;fill-rule:nonzero;" d="M0,49.458C17.524,49.273 26.567,39.058 34.643,30.104C42.105,21.831 48.081,15.082 60.52,15.082C72.96,15.082 78.937,21.831 86.399,30.104C94.66,39.263 103.925,49.746 122.25,49.462C140.575,49.746 149.841,39.263 158.101,30.104C165.563,21.831 171.54,15.082 183.979,15.082C196.418,15.082 202.395,21.831 209.857,30.104C217.934,39.058 226.976,49.273 244.5,49.458L244.5,34.275C232.891,33.845 227.049,27.269 219.838,19.272C211.576,10.113 202.298,-0.288 183.979,-0.066C165.66,-0.288 156.381,10.113 148.121,19.272C140.659,27.545 134.683,34.317 122.25,34.317C109.816,34.317 103.84,27.545 96.379,19.272C88.118,10.113 78.84,-0.288 60.52,-0.066C42.201,-0.288 32.923,10.113 24.663,19.272C17.451,27.269 11.609,33.845 0,34.275L0,49.458Z"></path>
            </g>
        </g>
    </g>
</svg>
