<?xml version="1.0" encoding="UTF-8"?>
<svg id="Layer_1" data-name="Layer 1" xmlns="http://www.w3.org/2000/svg" viewBox="0 0 690.16 283.46">
  <defs>
    <style>
      .cls-1 {
        fill: none;
      }

      .cls-2 {
        fill: #231f20;
      }
    </style>
  </defs>
  <path class="cls-2" d="M196.15,146.54V50.85H50.86v95.69c-.01.34-.69,28.9,22.24,55.02,13.33,15.19,45.46,28.98,50.41,31.05,4.95-2.07,37.08-15.86,50.41-31.05,22.92-26.12,22.25-54.68,22.23-55.02ZM183.5,105.89c-1,2.54-4.93-.2-5.79,1.84-.58,1.39,2.63,1.76,1.63,3.91-1.2,2.59-6.35-.69-7.35.9-.82,1.3,2.44,1.5,1.46,3.78-.55,1.28-2.55.75-3.4.55l-5.16-1.05c-.9.72-2.33,1.85-2.75,2.17-.73.56-3.52,2.8-2.74,3.04,3.03,1.34,4.62,2.45,5.43,3.33l5.15-1.05c.85-.19,2.84-.73,3.4.55.99,2.28-2.28,2.48-1.46,3.78,1.01,1.59,6.16-1.69,7.35.9.99,2.15-2.21,2.52-1.63,3.91.86,2.04,4.79-.7,5.79,1.84,1,2.54-3.32,2.97-2.01,4.47,1.3,1.48,3.43,3.71,1.67,5.47-1.77,1.77-3.99-.37-5.48-1.67-1.5-1.31-1.93,3.02-4.47,2.02-2.54-1,.2-4.93-1.84-5.79-1.39-.58-1.76,2.63-3.91,1.63-2.59-1.2.69-6.35-.9-7.35-1.3-.82-1.5,2.44-3.78,1.46-1.28-.56-.75-2.55-.55-3.4l1.16-5.68c-1.91-1.41-4.58-3.15-8.51-3.67-12.33-1.62-20.44,6.6-23.62,13.93-2.54,5.86-2.33,21.1-1.34,24.8,0,0,.31.21,7.23-4.32,1.38-.9,2.88-2.44,3.55-3.71l-2.26-4.46c-.41-.77-1.45-2.55-.36-3.42,1.94-1.55,2.99,1.54,4.03.41,1.27-1.39-3.26-5.49-1.07-7.33,1.81-1.53,3.02,1.47,4.2.54,1.75-1.36-1.93-4.43.25-6.07,2.18-1.64,3.74,2.42,4.84.77,1.09-1.65,2.67-4.29,4.84-3.05,2.17,1.24.7,3.95-.16,5.72-.87,1.79,3.42,1.07,3.12,3.78-.29,2.71-4.81,1.11-5.1,3.3-.19,1.49,3,1,2.61,3.34-.47,2.82-6.3,1.01-6.86,2.81-.45,1.47,2.75.8,2.4,3.26-.2,1.39-2.26,1.39-3.13,1.43l-5.5.36c-.49.84-1.18,1.8-2.15,2.67,0,0,5.72.12,10.06,2.46l5.48-2.26c.8-.35,2.65-1.25,3.44-.1,1.4,2.05-1.77,2.87-.72,3.99,1.29,1.37,5.73-2.82,7.39-.5,1.38,1.93-1.7,2.9-.87,4.15,1.23,1.85,4.57-1.59,6.03.72,1.46,2.3-2.71,3.54-1.14,4.77,1.56,1.21,4.07,2.99,2.67,5.06s-3.99.39-5.69-.6c-1.72-1-1.33,3.33-4.01,2.82-2.68-.5-.73-4.88-2.9-5.34-1.47-.31-1.23,2.91-3.53,2.34-2.77-.68-.52-6.36-2.27-7.05-1.43-.56-1.01,2.68-3.44,2.14-1.36-.3-1.21-2.36-1.18-3.23l.06-4.86c-.81-.49-1.84-1.05-2.71-1.32-3.6-1.05-13.97-3.81-16.06,9.54-1.33,6.08-.79,11.96,1.1,15.56,2.45,4.66,7.59-.07,12.57-1.88,9.47-3.43,15.45,2.74,18.9,3.95,1.82.64,3.23.44,4.16.09.39-.14.72.29.49.63-1.65,2.4-5.54,6.71-10.68,3.29-7.7-5.14-15.07-2.91-18.59.45-.31.3,0,.81.41.69,6.37-1.77,9.15,2.93,13.37,5.07,3.03,1.53,5.81.62,7.22-.06.34-.17.71.19.56.54-.52,1.22-1.62,3.14-3.62,3.96-5.13,2.09-10.25-1.2-12.87-3.39-3.26-2.73-9.87-.79-9.32,2.56.42,2.58,5.19,4.17,7.15,4.72.34.1.42.55.12.74-.89.59-2.53,1.46-4.41,1.36-6.82-.36-6.57-6.16-9.07-5.36-2.04.28-3.85,11.3-4.93,11.32-1.08-.02-2.89-11.05-4.93-11.32-2.5-.79-2.24,5-9.07,5.36-1.87.1-3.52-.77-4.41-1.36-.3-.2-.22-.65.12-.74,1.96-.55,6.73-2.14,7.15-4.72.55-3.35-6.06-5.29-9.32-2.56-2.62,2.19-7.74,5.48-12.87,3.39-2-.81-3.1-2.73-3.62-3.96-.15-.35.22-.7.56-.54,1.4.68,4.19,1.6,7.22.06,4.23-2.14,7.01-6.85,13.37-5.07.41.12.72-.4.41-.69-3.53-3.36-10.89-5.59-18.59-.45-5.14,3.42-9.03-.89-10.68-3.29-.23-.34.1-.77.49-.63.93.35,2.34.55,4.16-.09,3.45-1.21,9.43-7.38,18.9-3.95,4.98,1.81,10.12,6.54,12.57,1.88,1.89-3.6,2.43-9.48,1.1-15.56-2.1-13.35-12.46-10.59-16.06-9.54-.87.26-1.9.83-2.7,1.32l.06,4.86c.03.87.18,2.93-1.19,3.23-2.42.54-2.01-2.71-3.44-2.14-1.75.69.5,6.37-2.27,7.05-2.3.57-2.06-2.65-3.53-2.34-2.17.45-.22,4.83-2.9,5.34-2.68.51-2.29-3.83-4.01-2.82-1.7,1-4.29,2.67-5.69.6-1.4-2.07,1.11-3.85,2.67-5.06,1.57-1.22-2.6-2.46-1.14-4.77,1.46-2.3,4.81,1.13,6.03-.72.83-1.25-2.25-2.22-.87-4.15,1.66-2.32,6.1,1.87,7.39.5,1.05-1.12-2.11-1.93-.72-3.99.79-1.16,2.64-.25,3.44.1l5.48,2.26c4.34-2.34,10.06-2.46,10.06-2.46-.97-.87-1.67-1.84-2.15-2.67l-5.5-.36c-.87-.04-2.93-.05-3.13-1.43-.35-2.46,2.85-1.79,2.4-3.26-.55-1.8-6.39,0-6.85-2.81-.39-2.34,2.8-1.85,2.61-3.34-.29-2.2-4.8-.59-5.1-3.3-.29-2.71,3.99-1.99,3.12-3.78-.86-1.77-2.34-4.48-.16-5.72,2.17-1.24,3.75,1.41,4.84,3.05,1.1,1.66,2.66-2.4,4.84-.77,2.18,1.64-1.5,4.7.25,6.07,1.18.93,2.39-2.07,4.2-.54,2.18,1.84-2.34,5.94-1.07,7.33,1.04,1.14,2.09-1.96,4.03-.41,1.09.87.05,2.66-.36,3.42l-2.26,4.46c.67,1.26,2.17,2.81,3.55,3.71,6.92,4.52,7.23,4.32,7.23,4.32.99-3.7,1.2-18.95-1.34-24.8-3.18-7.34-11.29-15.56-23.62-13.93-3.92.52-6.59,2.26-8.51,3.67l1.16,5.68c.19.85.73,2.84-.55,3.4-2.28.98-2.48-2.28-3.78-1.46-1.59,1.01,1.69,6.16-.9,7.35-2.15.99-2.52-2.21-3.91-1.63-2.04.86.7,4.79-1.84,5.79-2.54,1-2.97-3.33-4.47-2.02-1.48,1.3-3.71,3.43-5.47,1.67-1.77-1.77.37-3.99,1.67-5.47,1.31-1.5-3.02-1.93-2.01-4.47,1-2.54,4.93.2,5.79-1.84.58-1.39-2.62-1.76-1.63-3.91,1.2-2.59,6.35.69,7.35-.9.82-1.3-2.44-1.5-1.46-3.78.56-1.28,2.55-.75,3.4-.55l5.15,1.05c.8-.88,2.4-1.99,5.42-3.33.78-.24-2.01-2.49-2.74-3.04-.42-.32-1.85-1.45-2.75-2.17l-5.16,1.05c-.85.19-2.84.73-3.4-.55-.98-2.28,2.28-2.48,1.46-3.78-1.01-1.59-6.16,1.69-7.35-.9-.99-2.15,2.21-2.52,1.63-3.91-.85-2.04-4.79.7-5.79-1.84-1-2.54,3.33-2.97,2.02-4.47-1.3-1.48-3.43-3.71-1.67-5.48,1.77-1.77,3.99.37,5.47,1.67,1.5,1.31,1.93-3.02,4.47-2.02,2.54,1-.2,4.93,1.84,5.79,1.39.58,1.76-2.62,3.91-1.63,2.59,1.2-.69,6.35.9,7.35,1.3.82,1.5-2.44,3.78-1.46,1.28.55.75,2.55.55,3.4l-1.15,5.62c2.04,1.88,5.55,5.23,7.83,5.12.27-.05,8.14-1.3,13.63,1.44,9.93,4.95,12.21,9.63,13.3,11.88.47.97.7,1.4,1.1,1.42,0,0,.04,0,.11-.06.96-.95,1.05-6.85,1.06-13.82.13-5.07-4.11-7.75-7.27-9.03l-5.88,2.89c-.77.4-2.56,1.42-3.43.32-1.53-1.95,1.57-2.98.45-4.02-1.38-1.28-5.53,3.2-7.34.99-1.51-1.83,1.5-3,.59-4.19-1.35-1.76-4.46,1.89-6.07-.32-1.61-2.2,2.46-3.72.82-4.83-1.63-1.11-4.26-2.72-3-4.87,1.26-2.16,3.95-.66,5.72.23,1.78.89,1.1-3.41,3.81-3.08,2.71.33,1.05,4.82,3.25,5.13,1.49.21,1.03-2.98,3.37-2.57,2.81.5.94,6.31,2.73,6.89,1.47.47.83-2.74,3.29-2.36,1.38.21,1.37,2.28,1.4,3.15l.25,4.64c1.88.57,4.42,1.69,6.6,3.85.14.14.37.03.36-.16-.26-6.12-.28-10.04-2.34-13.62-1.97-3.42-6.04-9.25-12.03-11.69-.55-.24-1.01-.44-1.41-.63l-6.12,1.63c-.84.24-2.8.89-3.42-.35-1.12-2.22,2.13-2.61,1.23-3.86-1.1-1.53-6.05,2.05-7.39-.47-1.12-2.09,2.06-2.65,1.4-4-.97-1.99-4.74.97-5.89-1.5-1.15-2.48,3.15-3.16,1.75-4.58-1.38-1.41-3.65-3.5-1.98-5.37,1.66-1.87,4,.13,5.56,1.34,1.57,1.22,1.75-3.12,4.34-2.27,2.59.85.09,4.94,2.18,5.67,1.42.5,1.6-2.72,3.81-1.86,2.66,1.04-.32,6.38,1.33,7.29,1.34.75,1.35-2.52,3.69-1.67,1.31.48.9,2.5.75,3.36l-.66,4.56c4.48,1.81,10.83,6.09,14.62,11.62.17.25.32.48.46.7.56.87.89,1.34,1.37,1.42.05-.49.47-5.13.58-8.26l-4.48-2.96c-.74-.46-2.53-1.49-2.01-2.79.91-2.31,3.36-.14,3.7-1.64.41-1.83-5.55-3.16-4.56-5.84.82-2.22,3.35-.22,3.92-1.61.84-2.05-3.88-2.89-2.79-5.4,1.09-2.5,4.45.25,4.58-1.73.13-1.97.19-5.05,2.69-5.05.11,0,.21.01.31.02.1-.01.2-.02.31-.02,2.5,0,2.56,3.08,2.69,5.05.13,1.98,3.5-.77,4.58,1.73,1.09,2.5-3.63,3.34-2.79,5.4.57,1.39,3.1-.62,3.92,1.61.99,2.68-4.97,4-4.56,5.84.34,1.5,2.79-.66,3.7,1.64.52,1.3-1.27,2.33-2.01,2.79l-4.48,2.96c.11,3.12.53,7.76.58,8.26.48-.08.81-.56,1.37-1.42.14-.22.29-.45.46-.7,3.79-5.53,10.14-9.8,14.62-11.62l-.66-4.56c-.14-.86-.56-2.88.75-3.36,2.33-.85,2.34,2.42,3.69,1.67,1.64-.91-1.33-6.24,1.33-7.29,2.21-.87,2.39,2.36,3.81,1.86,2.09-.73-.42-4.82,2.18-5.67,2.59-.85,2.77,3.49,4.34,2.27,1.56-1.21,3.9-3.21,5.56-1.34,1.66,1.87-.6,3.96-1.98,5.37-1.4,1.42,2.9,2.1,1.75,4.58-1.15,2.48-4.91-.49-5.89,1.5-.66,1.35,2.52,1.91,1.4,4-1.35,2.52-6.3-1.06-7.39.47-.9,1.25,2.35,1.64,1.23,3.86-.63,1.25-2.59.6-3.42.35l-6.12-1.63c-.4.19-.87.4-1.41.63-6,2.44-10.07,8.27-12.03,11.69-2.06,3.58-2.07,7.5-2.34,13.62,0,.19.22.3.36.16,2.18-2.16,4.72-3.28,6.6-3.85l.25-4.64c.03-.87.02-2.93,1.4-3.15,2.45-.38,1.82,2.83,3.29,2.36,1.79-.57-.08-6.38,2.73-6.89,2.33-.41,1.88,2.78,3.37,2.57,2.2-.31.54-4.81,3.25-5.13,2.71-.32,2.03,3.97,3.81,3.08,1.76-.88,4.45-2.38,5.72-.23,1.26,2.16-1.36,3.77-3,4.87-1.65,1.12,2.43,2.63.82,4.83-1.61,2.2-4.72-1.45-6.07.32-.91,1.19,2.1,2.36.59,4.19-1.81,2.21-5.97-2.27-7.34-.99-1.12,1.05,1.98,2.07.45,4.02-.86,1.1-2.66.08-3.43-.32l-5.88-2.89c-3.16,1.29-7.4,3.96-7.27,9.03,0,6.97.1,12.87,1.06,13.82.07.07.1.06.11.06.4-.02.62-.45,1.1-1.42,1.09-2.25,3.37-6.93,13.3-11.88,5.49-2.74,13.36-1.49,13.63-1.44,2.28.11,5.79-3.24,7.83-5.12l-1.15-5.62c-.19-.85-.73-2.84.55-3.4,2.28-.98,2.48,2.28,3.78,1.46,1.59-1.01-1.69-6.16.9-7.35,2.15-.99,2.52,2.21,3.91,1.63,2.05-.86-.7-4.79,1.84-5.79,2.54-1,2.97,3.33,4.47,2.02,1.48-1.3,3.71-3.43,5.47-1.67s-.37,3.99-1.67,5.48c-1.31,1.5,3.02,1.93,2.02,4.47ZM114.69,113.59s.02,0,.03-.01c0,0,.01.01.02.02-.02,0-.03,0-.05,0ZM132.33,113.59s-.03,0-.05,0c0,0,.01-.01.02-.02,0,0,.02,0,.03.01Z"/>
  <path class="cls-2" d="M241.2,115.8c-.29-.29-.44-.65-.44-1.09l.15-.65,17.44-46.86c.48-1.21,1.36-1.82,2.61-1.82h7.99c1.26,0,2.13.61,2.62,1.82l17.44,46.86.15.65c0,.44-.16.8-.47,1.09-.31.29-.67.44-1.05.44h-6.47c-1.02,0-1.72-.46-2.11-1.38l-3.34-8.79h-21.5l-3.34,8.79c-.39.92-1.09,1.38-2.11,1.38h-6.47c-.44,0-.8-.14-1.09-.44M256.75,97.64h16.42l-8.21-22.38-8.21,22.38Z"/>
  <path class="cls-2" d="M296.88,111.81c-3.7-3.44-5.68-8.23-5.92-14.38-.05-1.4-.07-3.66-.07-6.76s.02-5.35.07-6.76c.19-6,2.18-10.72,5.96-14.13,3.78-3.41,8.96-5.12,15.55-5.12,4.46,0,8.29.76,11.51,2.29,3.22,1.53,5.65,3.42,7.3,5.67,1.65,2.25,2.52,4.47,2.62,6.65,0,.43-.15.8-.44,1.09-.29.29-.68.44-1.16.44h-7.63c-.48,0-.85-.1-1.09-.29-.24-.19-.46-.51-.65-.94-.68-1.79-1.87-3.32-3.56-4.58-1.7-1.26-4-1.89-6.9-1.89-3.39,0-6.04.91-7.96,2.72-1.91,1.82-2.92,4.64-3.01,8.46-.05,1.4-.07,3.54-.07,6.39s.02,4.94.07,6.39c.1,3.92,1.11,6.82,3.05,8.68,1.94,1.86,4.6,2.8,7.99,2.8s6.2-.92,8.28-2.76c2.08-1.84,3.12-4.6,3.12-8.28v-2.25h-8.86c-.49,0-.9-.17-1.24-.51-.34-.34-.51-.75-.51-1.24v-3.99c0-.48.17-.9.51-1.24.34-.34.75-.51,1.24-.51h17.44c.53,0,.97.17,1.31.51.34.34.51.75.51,1.24v7.7c0,4.02-.9,7.52-2.69,10.5-1.79,2.98-4.33,5.27-7.63,6.87-3.29,1.6-7.14,2.4-11.55,2.4-6.68,0-11.88-1.72-15.58-5.16"/>
  <path class="cls-2" d="M341.44,115.73c-.34-.34-.51-.75-.51-1.24v-47.3c0-.53.16-.97.47-1.31.31-.34.74-.51,1.27-.51h17.73c14.29,0,21.58,6.59,21.87,19.76.1,2.81.14,4.7.14,5.67s-.05,2.79-.14,5.59c-.19,6.78-2.02,11.78-5.49,15-3.46,3.22-8.8,4.83-16.02,4.83h-18.09c-.48,0-.9-.17-1.24-.51M360.4,107.81c4.02,0,6.93-.9,8.72-2.69,1.79-1.79,2.74-4.77,2.83-8.94.1-2.91.15-4.72.15-5.45,0-.77-.05-2.57-.15-5.38-.1-3.97-1.09-6.89-2.98-8.75-1.89-1.86-4.87-2.8-8.93-2.8h-8.86v34h9.23Z"/>
  <path class="cls-2" d="M389.73,115.73c-.34-.34-.51-.75-.51-1.24v-47.29c0-.53.16-.97.47-1.31.31-.34.74-.51,1.27-.51h32.04c.53,0,.97.17,1.31.51.34.34.51.78.51,1.31v4.87c0,.53-.17.96-.51,1.27-.34.32-.77.47-1.31.47h-23.83v12.71h22.23c.53,0,.97.17,1.31.51.34.34.51.78.51,1.31v4.58c0,.53-.17.96-.51,1.27-.34.32-.77.47-1.31.47h-22.23v13.15h24.41c.53,0,.97.16,1.31.47.34.32.51.74.51,1.27v4.94c0,.53-.17.96-.51,1.27-.34.32-.78.47-1.31.47h-32.62c-.48,0-.9-.17-1.24-.51"/>
  <path class="cls-2" d="M432.09,115.73c-.34-.34-.51-.75-.51-1.24v-47.29c0-.53.16-.97.47-1.31.31-.34.74-.51,1.27-.51h18.82c5.96,0,10.62,1.38,13.99,4.14,3.37,2.76,5.05,6.68,5.05,11.77,0,3.54-.85,6.5-2.54,8.9-1.7,2.4-4.07,4.13-7.12,5.19l10.53,18.53c.15.29.22.56.22.8,0,.44-.16.8-.47,1.09-.32.29-.67.44-1.05.44h-6.68c-.77,0-1.38-.18-1.82-.54-.44-.36-.82-.84-1.16-1.42l-9.3-17.22h-9.95v17.44c0,.49-.17.9-.51,1.24-.34.34-.77.51-1.31.51h-6.68c-.49,0-.9-.17-1.24-.51M451.92,88.78c2.91,0,5.08-.64,6.54-1.93,1.45-1.28,2.18-3.16,2.18-5.63s-.73-4.37-2.18-5.7c-1.45-1.33-3.63-2-6.54-2h-10.1v15.26h10.1Z"/>
  <path class="cls-2" d="M247.21,174.01c-.24-.24-.36-.55-.36-.92v-23.48h-4.81c-.37,0-.68-.11-.92-.34-.24-.22-.36-.52-.36-.89v-1.79c0-.37.12-.68.36-.92.24-.24.55-.36.92-.36h4.81v-2.8c0-3.02.74-5.36,2.21-7.02,1.47-1.66,3.89-2.49,7.24-2.49h3.3c.37,0,.68.12.92.36.24.24.36.55.36.92v1.79c0,.37-.12.67-.36.9-.24.22-.55.34-.92.34h-3.19c-1.71,0-2.91.45-3.58,1.34-.67.9-1.01,2.27-1.01,4.14v2.52h7.21c.37,0,.68.12.92.36.24.24.36.55.36.92v1.79c0,.37-.12.67-.36.89-.24.22-.55.34-.92.34h-7.21v23.48c0,.37-.12.68-.36.92-.24.24-.55.36-.92.36h-2.4c-.37,0-.68-.12-.92-.36"/>
  <path class="cls-2" d="M270.61,184.66c-.22-.22-.33-.49-.33-.78,0-.11.09-.45.28-1.01l4.36-10.23-10.68-25.22c-.22-.45-.34-.76-.34-.95.04-.33.17-.61.39-.84.22-.22.48-.34.78-.34h2.57c.6,0,1.04.3,1.34.9l8.61,20.57,8.83-20.57c.3-.6.74-.9,1.34-.9h2.51c.3,0,.56.11.78.34.22.22.34.48.34.78,0,.26-.09.6-.28,1.01l-15.82,36.68c-.19.3-.38.52-.59.67-.21.15-.48.22-.81.22h-2.46c-.34,0-.62-.11-.84-.33"/>
  <path class="cls-2" d="M296.81,174.01c-.24-.24-.36-.55-.36-.92v-37.12c0-.41.12-.73.36-.95.24-.22.55-.34.92-.34h2.46c.37,0,.68.12.92.36.24.24.36.55.36.92v37.12c0,.37-.12.68-.36.92-.24.24-.55.36-.92.36h-2.46c-.37,0-.68-.12-.92-.36"/>
  <path class="cls-2" d="M309.27,174.01c-.24-.24-.36-.55-.36-.92v-37.12c0-.41.12-.73.36-.95.24-.22.55-.34.92-.34h2.4c.37,0,.68.12.92.36.24.24.36.55.36.92v19.51l11.18-9.22c.56-.41.95-.67,1.17-.78.22-.11.58-.17,1.06-.17h2.79c.34,0,.61.1.81.31.21.21.31.49.31.87,0,.33-.21.69-.62,1.06l-13.08,10.74,14.48,13.87c.41.41.61.76.61,1.06,0,.34-.1.61-.31.84-.21.22-.48.33-.81.33h-2.74c-.56,0-.96-.06-1.2-.17-.24-.11-.59-.37-1.03-.78l-12.64-11.97v11.63c0,.37-.12.68-.36.92-.24.24-.55.36-.92.36h-2.4c-.37,0-.68-.12-.92-.36"/>
  <path class="cls-2" d="M338.3,171.38c-2.27-2.37-3.52-5.6-3.75-9.7l-.06-1.9.06-1.85c.22-4.03,1.47-7.23,3.75-9.62,2.27-2.38,5.31-3.58,9.11-3.58,4.1,0,7.28,1.31,9.53,3.91,2.25,2.61,3.38,6.15,3.38,10.62v1.01c0,.37-.12.68-.36.92-.24.24-.55.36-.92.36h-19.4v.5c.11,2.42.86,4.49,2.24,6.21,1.38,1.71,3.21,2.57,5.48,2.57,1.75,0,3.18-.34,4.28-1.03,1.1-.69,1.93-1.41,2.49-2.15.34-.45.6-.72.78-.81.19-.09.5-.14.95-.14h2.46c.34,0,.62.09.87.28.24.19.36.43.36.73,0,.82-.5,1.81-1.51,2.96-1.01,1.15-2.43,2.15-4.28,2.99-1.85.84-3.96,1.26-6.35,1.26-3.8,0-6.84-1.18-9.11-3.55M355.24,157.77v-.17c0-2.61-.71-4.73-2.12-6.37-1.42-1.64-3.32-2.46-5.7-2.46s-4.32.82-5.7,2.46c-1.38,1.64-2.07,3.77-2.07,6.37v.17h15.6Z"/>
  <path class="cls-2" d="M369.9,173.67c-1.77-.84-3.08-1.8-3.94-2.88-.86-1.08-1.29-1.98-1.29-2.68,0-.37.13-.66.39-.87.26-.2.54-.31.84-.31h2.35c.22,0,.4.04.53.11.13.07.31.24.53.5.86,1.04,1.82,1.86,2.88,2.46,1.06.6,2.49.89,4.28.89,2.01,0,3.62-.37,4.84-1.12,1.21-.74,1.82-1.83,1.82-3.24,0-.93-.26-1.68-.78-2.24s-1.39-1.06-2.6-1.51c-1.21-.45-3.01-.93-5.39-1.45-3.24-.71-5.54-1.73-6.88-3.08-1.34-1.34-2.01-3.08-2.01-5.2,0-1.38.41-2.71,1.23-4,.82-1.29,2.04-2.33,3.66-3.13,1.62-.8,3.55-1.2,5.79-1.2,2.35,0,4.35.39,6.01,1.17,1.66.78,2.91,1.7,3.74,2.74.84,1.04,1.26,1.92,1.26,2.63,0,.34-.12.62-.36.84-.24.22-.53.34-.87.34h-2.12c-.52,0-.89-.2-1.12-.61-.64-.71-1.17-1.26-1.59-1.65-.43-.39-1.05-.73-1.87-1.01-.82-.28-1.85-.42-3.07-.42-1.83,0-3.22.38-4.19,1.15-.97.76-1.45,1.78-1.45,3.05,0,.78.2,1.44.61,1.99.41.54,1.19,1.04,2.35,1.51s2.87.94,5.14,1.43c3.54.75,6.05,1.81,7.52,3.19,1.47,1.38,2.21,3.15,2.21,5.31,0,1.6-.46,3.06-1.37,4.36-.91,1.31-2.27,2.33-4.08,3.07-1.81.75-3.96,1.12-6.46,1.12s-4.74-.42-6.51-1.26"/>
  <path class="cls-2" d="M394.29,174.01c-.24-.24-.36-.55-.36-.92v-37.12c0-.41.12-.73.36-.95.24-.22.55-.34.92-.34h2.4c.37,0,.68.12.92.36.24.24.36.55.36.92v19.51l11.18-9.22c.56-.41.95-.67,1.17-.78.22-.11.58-.17,1.06-.17h2.8c.33,0,.61.1.81.31.21.21.31.49.31.87,0,.33-.21.69-.62,1.06l-13.08,10.74,14.48,13.87c.41.41.61.76.61,1.06,0,.34-.1.61-.31.84-.21.22-.48.33-.81.33h-2.74c-.56,0-.96-.06-1.2-.17-.24-.11-.59-.37-1.04-.78l-12.63-11.97v11.63c0,.37-.12.68-.36.92-.24.24-.55.36-.92.36h-2.4c-.37,0-.68-.12-.92-.36"/>
  <path class="cls-2" d="M423.32,171.47c-2.22-2.31-3.4-5.39-3.55-9.22l-.05-2.4.05-2.4c.15-3.84,1.35-6.91,3.61-9.23,2.26-2.31,5.4-3.47,9.42-3.47s7.16,1.16,9.42,3.47c2.26,2.31,3.46,5.39,3.61,9.23.08.82.11,1.62.11,2.4s-.04,1.58-.11,2.4c-.15,3.84-1.33,6.91-3.55,9.22-2.22,2.31-5.38,3.47-9.48,3.47s-7.26-1.15-9.48-3.47M438.48,168.47c1.4-1.51,2.15-3.68,2.26-6.51.04-.37.06-1.08.06-2.12s-.02-1.75-.06-2.12c-.11-2.83-.87-5-2.26-6.51-1.4-1.51-3.29-2.26-5.67-2.26s-4.28.76-5.68,2.26c-1.4,1.51-2.15,3.68-2.26,6.51l-.06,2.12.06,2.12c.11,2.83.87,5,2.26,6.51,1.4,1.51,3.29,2.26,5.68,2.26s4.28-.75,5.67-2.26"/>
  <path class="cls-2" d="M452.46,174.01c-.24-.24-.36-.55-.36-.92v-26.5c0-.37.12-.68.36-.92.24-.24.55-.36.92-.36h2.35c.37,0,.67.12.89.36.22.24.34.55.34.92v1.9c2.01-2.5,4.73-3.75,8.16-3.75,4.1,0,7.01,1.72,8.72,5.14.89-1.56,2.17-2.81,3.83-3.75,1.66-.93,3.51-1.4,5.56-1.4,3.06,0,5.55,1.04,7.49,3.13,1.94,2.09,2.91,5.11,2.91,9.06v16.16c0,.37-.12.68-.36.92-.24.24-.55.36-.92.36h-2.4c-.37,0-.68-.12-.92-.36-.24-.24-.36-.55-.36-.92v-15.66c0-2.98-.61-5.12-1.85-6.4-1.23-1.29-2.85-1.93-4.86-1.93-1.79,0-3.33.66-4.61,1.99-1.29,1.32-1.93,3.44-1.93,6.35v15.66c0,.37-.12.68-.36.92-.24.24-.55.36-.92.36h-2.46c-.37,0-.68-.12-.92-.36-.24-.24-.36-.55-.36-.92v-15.66c0-2.94-.64-5.07-1.93-6.37-1.29-1.3-2.88-1.96-4.78-1.96-1.79,0-3.33.65-4.61,1.96-1.29,1.31-1.93,3.41-1.93,6.32v15.71c0,.37-.12.68-.36.92-.24.24-.55.36-.92.36h-2.46c-.37,0-.68-.12-.92-.36"/>
  <path class="cls-2" d="M501.17,174.01c-.24-.24-.36-.55-.36-.92v-26.5c0-.37.12-.68.36-.92.24-.24.55-.36.92-.36h2.35c.37,0,.67.12.89.36.22.24.34.55.34.92v1.9c2.01-2.5,4.73-3.75,8.16-3.75,4.1,0,7.01,1.72,8.72,5.14.89-1.56,2.17-2.81,3.83-3.75,1.66-.93,3.51-1.4,5.56-1.4,3.05,0,5.55,1.04,7.49,3.13,1.94,2.09,2.91,5.11,2.91,9.06v16.16c0,.37-.12.68-.36.92-.24.24-.55.36-.92.36h-2.4c-.37,0-.68-.12-.92-.36-.24-.24-.36-.55-.36-.92v-15.66c0-2.98-.61-5.12-1.84-6.4-1.23-1.29-2.85-1.93-4.87-1.93-1.79,0-3.33.66-4.61,1.99-1.29,1.32-1.93,3.44-1.93,6.35v15.66c0,.37-.12.68-.36.92-.24.24-.55.36-.92.36h-2.46c-.37,0-.68-.12-.92-.36-.24-.24-.36-.55-.36-.92v-15.66c0-2.94-.64-5.07-1.93-6.37-1.29-1.3-2.88-1.96-4.78-1.96-1.79,0-3.33.65-4.61,1.96-1.29,1.31-1.93,3.41-1.93,6.32v15.71c0,.37-.12.68-.36.92-.24.24-.55.36-.92.36h-2.46c-.37,0-.68-.12-.92-.36"/>
  <path class="cls-2" d="M552.01,171.49c-1.94-2.29-2.91-5.34-2.91-9.14v-15.77c0-.37.12-.68.36-.92.24-.24.55-.36.92-.36h2.57c.37,0,.68.12.92.36.24.24.36.55.36.92v15.49c0,5.67,2.46,8.5,7.38,8.5,2.38,0,4.28-.75,5.67-2.26,1.4-1.51,2.1-3.59,2.1-6.23v-15.49c0-.37.12-.68.36-.92.24-.24.55-.36.92-.36h2.57c.37,0,.68.12.92.36.24.24.36.55.36.92v26.5c0,.37-.12.68-.36.92-.24.24-.55.36-.92.36h-2.4c-.37,0-.68-.12-.92-.36-.24-.24-.36-.55-.36-.92v-2.52c-1.08,1.45-2.35,2.54-3.8,3.27-1.45.73-3.3,1.09-5.54,1.09-3.54,0-6.28-1.15-8.22-3.44"/>
  <path class="cls-2" d="M582.31,174.01c-.24-.24-.36-.55-.36-.92v-26.5c0-.37.12-.68.36-.92.24-.24.55-.36.92-.36h2.4c.41,0,.73.11.95.33.22.22.34.54.34.95v2.46c1.12-1.38,2.41-2.44,3.89-3.19,1.47-.75,3.31-1.12,5.51-1.12,3.58,0,6.36,1.15,8.33,3.44,1.98,2.29,2.96,5.32,2.96,9.08v15.82c0,.37-.12.68-.36.92-.24.24-.55.36-.92.36h-2.57c-.37,0-.68-.12-.92-.36-.24-.24-.36-.55-.36-.92v-15.49c0-2.68-.65-4.77-1.96-6.26-1.3-1.49-3.17-2.24-5.59-2.24s-4.29.76-5.7,2.26c-1.42,1.51-2.12,3.59-2.12,6.23v15.49c0,.37-.12.68-.36.92-.24.24-.55.36-.92.36h-2.57c-.37,0-.68-.12-.92-.36"/>
  <path class="cls-2" d="M617.27,171.38c-2.28-2.37-3.52-5.6-3.75-9.7l-.06-1.9.06-1.85c.22-4.03,1.47-7.23,3.75-9.62,2.27-2.38,5.31-3.58,9.11-3.58,4.1,0,7.28,1.31,9.53,3.91,2.25,2.61,3.38,6.15,3.38,10.62v1.01c0,.37-.12.68-.36.92-.24.24-.55.36-.92.36h-19.4v.5c.11,2.42.86,4.49,2.24,6.21,1.38,1.71,3.21,2.57,5.48,2.57,1.75,0,3.18-.34,4.28-1.03,1.1-.69,1.93-1.41,2.49-2.15.34-.45.6-.72.78-.81.19-.09.5-.14.95-.14h2.46c.34,0,.62.09.87.28.24.19.36.43.36.73,0,.82-.5,1.81-1.51,2.96-1.01,1.15-2.43,2.15-4.28,2.99-1.84.84-3.96,1.26-6.35,1.26-3.8,0-6.84-1.18-9.11-3.55M634.21,157.77v-.17c0-2.61-.71-4.73-2.12-6.37-1.42-1.64-3.32-2.46-5.7-2.46s-4.32.82-5.7,2.46c-1.38,1.64-2.07,3.77-2.07,6.37v.17h15.6Z"/>
  <rect class="cls-1" width="690.16" height="283.46"/>
</svg>