<?xml version="1.0" encoding="UTF-8" standalone="no"?><!DOCTYPE svg PUBLIC "-//W3C//DTD SVG 1.1//EN" "http://www.w3.org/Graphics/SVG/1.1/DTD/svg11.dtd"><svg width="100%" height="100%" viewBox="0 0 1895 500" version="1.1" xmlns="http://www.w3.org/2000/svg" xmlns:xlink="http://www.w3.org/1999/xlink" xml:space="preserve" xmlns:serif="http://www.serif.com/" style="fill-rule:evenodd;clip-rule:evenodd;stroke-linejoin:round;stroke-miterlimit:2;"><g><g><g><path d="M720.833,219.167l-37.083,0l-63.75,76.25l0,-76.25l-31.667,0l0,155.833l31.667,0l0,-40.417l22.083,-26.667l46.25,67.083l37.917,0l-61.667,-89.583l56.25,-66.25Z" style="fill-rule:nonzero;"/><path d="M805.833,318.333c0,7.5 -1.25,13.75 -3.333,18.75c-2.083,5 -5,8.75 -8.75,11.25c-3.75,2.5 -8.333,3.75 -12.917,3.75c-5.833,0 -10.417,-2.083 -13.333,-6.25c-2.917,-4.167 -4.583,-10.417 -4.583,-18.75l0,-62.917l-30.833,0l0,71.667c0,8.333 1.25,15.833 4.167,22.083c2.917,6.25 7.083,11.25 12.5,14.583c5.417,3.333 12.083,5 19.583,5c6.25,0 12.083,-1.25 17.083,-3.333c5,-2.5 9.167,-5.417 12.917,-10c3.333,-4.167 6.25,-9.167 8.333,-14.583l0,25l30.417,0l0,-110.417l-30.833,0l0,54.167l-0.417,0Z" style="fill-rule:nonzero;"/><rect x="863.333" y="219.167" width="30.833" height="155.833"/><path d="M980.417,353.333c-5.417,0 -9.583,-1.25 -12.5,-3.75c-2.917,-2.5 -4.167,-6.667 -4.167,-12.5l0,-50.417l28.333,0l0,-22.5l-28.333,0l0,-32.917l-29.583,0l0,32.917l-25.417,0l0,22.5l25,0l0,54.167c0,12.083 3.333,21.25 9.583,27.5c6.667,5.833 15.833,9.167 27.917,9.167c4.583,0 8.75,-0.417 12.5,-1.667c3.75,-0.833 6.667,-2.083 8.75,-2.917l0,-21.667c-2.083,0.417 -4.167,1.25 -6.25,1.667c-1.25,0 -3.333,0.417 -5.833,0.417Z" style="fill-rule:nonzero;"/><path d="M1084.583,318.333c0,7.5 -1.25,13.75 -3.333,18.75c-2.083,5 -5,8.75 -8.75,11.25c-3.75,2.5 -8.333,3.75 -12.917,3.75c-5.833,0 -10.417,-2.083 -13.333,-6.25c-2.917,-4.167 -4.583,-10.417 -4.583,-18.75l0,-62.917l-30.833,0l0,71.667c0,8.333 1.25,15.833 4.167,22.083c2.917,6.25 7.083,11.25 12.5,14.583c5.417,3.333 12.083,5 19.583,5c6.25,0 12.083,-1.25 17.083,-3.333c5,-2.5 9.167,-5.417 12.917,-10c3.333,-4.167 6.25,-9.167 8.333,-14.583l0,25l30.417,0l0,-110.417l-30.833,0l0,54.167l-0.417,0Z" style="fill-rule:nonzero;"/><path d="M1213.75,260.833c-7.083,0 -12.917,1.25 -18.75,4.167c-5.417,2.917 -10,7.083 -14.167,12.083c-3.75,5.417 -7.083,11.667 -9.167,19.167l0,-32.5l-30.417,0l0,111.25l30.833,0l0,-45.417c0,-8.75 1.667,-16.25 4.583,-21.667c2.917,-5.417 7.5,-9.583 12.917,-12.083c5.833,-2.5 12.5,-3.75 20,-3.75l4.167,0c1.25,0 2.5,0 3.75,0.417l0,-31.25l-2.083,0c-0,-0.417 -0.833,-0.417 -1.667,-0.417Z" style="fill-rule:nonzero;"/><path d="M1306.667,260.833c-7.083,0 -12.917,1.25 -18.75,4.167c-5.417,2.917 -10,7.083 -14.167,12.083c-3.75,5.417 -7.083,11.667 -9.167,19.167l0,-32.5l-30.417,0l0,111.25l30.833,0l0,-45.417c0,-8.75 1.667,-16.25 4.583,-21.667c2.917,-5.417 7.5,-9.583 12.917,-12.083c5.833,-2.5 12.5,-3.75 20,-3.75l4.167,0c1.25,0 2.5,0 3.75,0.417l0,-31.25l-2.083,0c-0,-0.417 -0.833,-0.417 -1.667,-0.417Z" style="fill-rule:nonzero;"/><path d="M1371.25,254.167c4.167,0 8.333,-0.833 12.5,-2.917c3.75,-2.083 7.083,-4.583 9.167,-8.333c2.5,-3.75 3.333,-7.917 3.333,-12.917c0,-4.583 -1.25,-8.75 -3.333,-12.5c-2.5,-3.75 -5.417,-6.667 -9.167,-8.75c-3.75,-2.083 -7.917,-3.333 -12.5,-3.333c-7.083,0 -12.917,2.5 -17.917,7.083c-4.583,4.583 -7.083,10.417 -7.083,17.5c0,7.5 2.5,13.333 7.5,17.5c5.417,4.167 10.833,6.25 17.5,6.667Zm-8.333,-33.333c2.083,-2.5 5,-3.333 8.75,-3.333c3.333,0 6.25,1.25 8.333,3.75c2.5,2.5 3.333,5 3.333,8.333c0,3.75 -1.25,7.083 -3.333,9.167c-2.083,2.083 -5,3.333 -8.75,3.333c-3.333,0 -5.833,-1.25 -8.333,-3.333c-2.5,-2.083 -3.333,-5.417 -3.333,-9.167c0,-3.75 1.25,-6.25 3.333,-8.75Z" style="fill-rule:nonzero;"/><path d="M1423.333,352.917c-1.667,-2.083 -2.5,-5.417 -2.5,-10l0,-37.5c0,-14.167 -4.167,-25.417 -12.917,-32.917c-8.75,-7.5 -21.25,-11.667 -37.5,-11.667c-9.167,0 -17.5,1.25 -24.583,4.167c-7.083,2.917 -12.917,6.667 -17.5,11.667c-4.167,5 -6.667,11.25 -7.5,17.917l29.167,4.583l0,-2.083c0.417,-5.417 2.5,-10 5.833,-12.917c3.333,-2.917 8.333,-4.583 14.583,-4.583c7.5,0 12.917,1.667 16.25,5.417c3.333,3.75 4.583,8.333 4.583,15l0,5.833c-2.083,-0.417 -4.583,-0.417 -7.5,-0.833c-2.5,-0.417 -5.833,-0.417 -9.583,-0.417c-10,0 -19.167,1.667 -27.5,4.167c-8.333,2.5 -15,6.667 -20,12.5c-5,5.833 -7.5,13.333 -7.5,22.917c0,10.833 3.333,19.167 10.417,25.417c7.083,6.25 15.833,8.75 26.667,8.75c7.5,0 14.583,-1.667 20.417,-5c5.833,-3.333 10.417,-7.5 13.75,-12.917c1.25,-2.083 2.5,-4.583 3.333,-7.083c0.417,6.667 2.5,12.083 6.25,16.25c4.167,5 11.25,7.5 20.417,7.5c3.333,0 6.25,-0.417 9.167,-0.833c2.917,-0.833 5.417,-1.667 7.5,-2.917l0,-18.75c-2.083,0.833 -4.583,1.25 -7.083,1.25c-2.5,0 -5,-0.833 -6.667,-2.917Zm-38.333,-3.333c-4.583,5 -10.417,7.5 -17.5,7.5c-5.417,0 -10,-1.25 -12.917,-4.167c-2.917,-2.917 -4.583,-6.25 -4.583,-11.25c0,-5 1.25,-8.75 4.167,-11.667c2.917,-2.917 6.25,-5 11.25,-6.25c4.583,-1.25 10.417,-2.083 16.25,-2.083c3.333,0 6.667,0 10,0.417l0,7.083c0,8.75 -2.5,15.833 -6.667,20.417Z" style="fill-rule:nonzero;"/><path d="M1528.75,285.417c0,-0.417 -0.417,-0.833 -0.417,-1.25c-2.083,-4.167 -4.583,-7.917 -7.917,-11.25c-3.333,-3.333 -7.083,-6.25 -11.667,-8.333c-4.583,-2.083 -10,-2.917 -15.833,-2.917c-7.083,0 -13.333,1.25 -19.167,4.167c-5.833,2.917 -10.833,6.667 -15,11.667c-4.167,5 -7.5,11.25 -10,18.333c-2.5,7.083 -3.333,15 -3.333,24.167c0,12.083 2.083,22.5 5.833,31.25c4.167,8.75 9.583,15.417 16.667,20c7.083,4.583 15,6.667 24.167,6.667c7.5,0 14.167,-1.667 20,-4.583c5.833,-2.917 10.417,-7.083 13.75,-12.5c1.667,-2.083 2.5,-4.583 3.75,-7.083l0,21.25l30.833,0l0,-155.833l-31.25,0l0,66.25l-0.417,0Zm-6.25,60.833c-2.083,3.333 -5,5.833 -8.333,7.5c-3.333,1.667 -6.667,2.5 -10.833,2.5c-5.417,0 -10,-1.25 -14.167,-4.167c-4.167,-2.917 -7.083,-7.083 -9.167,-12.5c-2.083,-5.417 -3.333,-12.083 -3.333,-20c0,-5.833 0.417,-10.833 1.667,-15.417c1.25,-4.583 2.917,-8.333 5,-11.25c2.083,-2.917 5,-5.417 8.333,-7.083c3.333,-1.667 7.083,-2.5 11.25,-2.5c5.417,0 10,1.667 13.75,4.583c3.75,2.917 6.667,7.083 8.75,12.5c2.083,5.417 3.333,12.083 3.333,19.583c0,5.417 -0.417,10.833 -1.667,15c-0.833,4.167 -2.5,8.333 -4.583,11.25Z" style="fill-rule:nonzero;"/><path d="M1666.25,268.333c-7.917,-5 -17.917,-7.5 -29.583,-7.5c-10.833,0 -20.417,2.5 -28.75,7.083c-8.333,4.583 -15,11.25 -20,20c-5,8.75 -7.083,19.167 -7.083,31.667c0,11.667 2.083,21.667 6.25,30.417c4.167,8.75 10.833,15.417 19.167,20.417c8.333,5 18.75,7.5 30.833,7.5c10,0 18.333,-1.667 25.417,-4.583c7.083,-2.917 12.917,-7.083 17.5,-12.083c4.583,-5 8.333,-10.833 10.833,-16.667l-25.417,-9.583c-2.083,6.25 -5.417,11.25 -9.583,14.583c-4.167,3.75 -10,5.417 -16.667,5.417c-6.667,0 -11.667,-1.25 -15.833,-4.167c-4.167,-2.917 -7.083,-6.667 -8.75,-11.667c-1.667,-4.167 -2.5,-8.75 -2.917,-13.75l80,0l0,-4.167c0,-12.083 -2.083,-22.917 -6.25,-32.083c-5,-8.75 -10.833,-15.833 -19.167,-20.833Zm-50.833,24.583c2.083,-3.75 5,-6.667 8.333,-8.333c3.333,-2.083 7.5,-2.917 12.5,-2.917c7.083,0 12.917,2.083 17.083,6.25c4.167,4.167 6.25,10.417 6.667,18.333l-48.75,0c0.833,-5 2.083,-9.583 4.167,-13.333Z" style="fill-rule:nonzero;"/><path d="M1775,352.917c-2.083,0.417 -4.167,0.417 -6.25,0.417c-5.417,0 -9.583,-1.25 -12.5,-3.75c-2.917,-2.5 -4.167,-6.667 -4.167,-12.5l0,-50.417l28.333,0l0,-22.5l-28.333,0l0,-32.917l-29.583,0l0,32.917l-25.417,0l0,22.5l25,0l0,54.167c0,12.083 3.333,21.25 9.583,27.5c6.667,5.833 15.833,9.167 27.917,9.167c4.583,0 8.75,-0.417 12.5,-1.667c3.75,-0.833 6.667,-2.083 8.75,-2.917l0,-21.667c-1.667,0.417 -3.75,1.25 -5.833,1.667Z" style="fill-rule:nonzero;"/></g><g><rect x="288.333" y="125" width="41.667" height="250"/><path d="M433.935,124.928l29.462,29.463l-74.835,74.835l-29.463,-29.463l74.835,-74.835Z"/><path d="M388.554,270.774l74.835,74.835l-29.463,29.463l-74.835,-74.835l29.462,-29.462Z"/><path d="M188.022,270.606l29.462,29.463l-74.835,74.835l-29.462,-29.463l74.835,-74.835Z"/><path d="M142.369,125.058l74.835,74.835l-29.462,29.463l-74.835,-74.835l29.462,-29.462Z"/></g></g></g></svg>