<?xml version="1.0" encoding="UTF-8" standalone="no"?><!DOCTYPE svg PUBLIC "-//W3C//DTD SVG 1.1//EN" "http://www.w3.org/Graphics/SVG/1.1/DTD/svg11.dtd"><svg width="100%" height="100%" viewBox="0 0 1004 526" version="1.1" xmlns="http://www.w3.org/2000/svg" xmlns:xlink="http://www.w3.org/1999/xlink" xml:space="preserve" xmlns:serif="http://www.serif.com/" style="fill-rule:evenodd;clip-rule:evenodd;stroke-linejoin:round;stroke-miterlimit:2;"><rect id="Page-1" serif:id="Page 1" x="0" y="0" width="1003.888" height="525.292" style="fill:none;"/><g id="Layer-2" serif:id="Layer 2"><path d="M486.653,200.334c11.792,0 18.375,-4.875 18.375,-14.667c0,-9.792 -6.583,-13.542 -18.375,-13.542l-12.708,0l0,28.208l12.708,0Zm-22.333,-35.958l23.708,0c15.5,0 26.583,5.542 26.583,21.292c0,11.792 -6.708,18.958 -17.125,21.5l19.333,33.083l-10.875,0l-18.292,-32.042l-13.75,0l0,32.042l-9.583,0l0,-75.875" style="fill:#231f20;fill-rule:nonzero;"/><path d="M529.238,184.042l9.5,0l0,56.208l-9.5,0l0,-56.208Zm-1.5,-17.833c0,-3.708 2.667,-6.25 6.375,-6.25c3.708,0 6.375,2.542 6.375,6.25c0,3.708 -2.667,6.25 -6.375,6.25c-3.708,0 -6.375,-2.417 -6.375,-6.25" style="fill:#231f20;fill-rule:nonzero;"/><path d="M551.445,233.875l4.75,-6.375c4.875,3.917 9.833,6.708 16.542,6.708c7.417,0 11.083,-3.917 11.083,-8.792c0,-5.792 -6.708,-8.333 -12.833,-10.625c-8,-2.875 -16.417,-6.708 -16.417,-16.208c0,-9.5 7.167,-15.958 19.417,-15.958c6.958,0 13.083,2.875 17.458,6.375l-4.625,6c-3.833,-2.875 -7.875,-4.958 -12.833,-4.958c-7.042,0 -10.292,3.833 -10.292,8.083c0,5.333 5.792,7.292 12.125,9.708c8.083,3 17.125,6.375 17.125,17c0,9.125 -7.292,16.75 -20.583,16.75c-8,0 -15.625,-3.333 -20.917,-7.75l0,0.042Z" style="fill:#231f20;fill-rule:nonzero;"/><path d="M644.653,212.584c0,-5.208 -0.917,-9.583 -2.792,-13.167l-24.625,30.083c2.875,2.875 6.583,4.5 10.75,4.5c9.708,0 16.667,-8.667 16.667,-21.375l0,-0.042Zm-30.667,12.25l24.75,-29.958c-2.792,-3 -6.458,-4.625 -10.75,-4.625c-9.583,0 -16.667,8.792 -16.667,21.5c0,5.208 0.917,9.583 2.667,13.083m-12,14.708l6.25,-7.5c-3.833,-4.958 -6.25,-11.583 -6.25,-19.792c0,-18.833 12.25,-29.625 26.042,-29.625c5.917,0 11.583,1.958 16.083,5.792l5.792,-7.042l4.167,3.333l-6.25,7.5c3.833,4.958 6.25,11.667 6.25,20c0,18.625 -12.25,29.375 -26.042,29.375c-5.917,0 -11.583,-1.958 -16.083,-5.667l-5.667,6.958l-4.292,-3.375l0,0.042Z" style="fill:#231f20;fill-rule:nonzero;"/><path d="M668.82,184.042l7.875,0l0.792,10.167l0.333,0c3.833,-7.042 9.583,-11.583 15.958,-11.583c2.417,0 4.167,0.333 6,1.167l-1.833,8.333c-1.833,-0.583 -3.125,-0.917 -5.417,-0.917c-4.75,0 -10.417,3.458 -14.208,12.958l0,36.083l-9.5,0l0,-56.208Z" style="fill:#231f20;fill-rule:nonzero;"/><path d="M463.403,296.625l9.333,0l0,55.792l0.333,0l24,-29.625l10.542,0l-18.833,22.583l21.292,33.625l-10.417,0l-16.375,-27l-10.542,12.25l0,14.75l-9.333,0l0,-82.375" style="fill:#231f20;fill-rule:nonzero;"/><path d="M556.695,351c0,-12.875 -6.542,-21.667 -16.208,-21.667c-9.667,0 -16.208,8.75 -16.208,21.667c0,12.917 6.542,21.5 16.208,21.5c9.667,0 16.208,-8.625 16.208,-21.5m-42.292,0c0,-18.75 12.292,-29.583 26.042,-29.583c13.75,0 26.042,10.792 26.042,29.583c0,18.792 -12.25,29.417 -26.042,29.417c-13.792,0 -26.042,-10.792 -26.042,-29.417" style="fill:#231f20;fill-rule:nonzero;"/><path d="M581.278,322.834l7.875,0l0.792,8.083l0.333,0c4.875,-5.333 10.75,-9.5 17.458,-9.5c8.542,0 13.208,4.042 15.5,10.75c5.917,-6.375 11.667,-10.75 18.5,-10.75c11.583,0 17.125,7.625 17.125,21.958l0,35.625l-9.5,0l0,-34.333c0,-10.542 -3.333,-15.042 -10.417,-15.042c-4.375,0 -8.917,2.875 -14.125,8.667l0,40.708l-9.5,0l0,-34.333c0,-10.542 -3.333,-15.042 -10.542,-15.042c-4.167,0 -8.917,2.875 -14.125,8.667l0,40.708l-9.5,0l0,-56.208l0.125,0.042Z" style="fill:#231f20;fill-rule:nonzero;"/><path d="M677.153,322.834l7.875,0l0.792,8.083l0.333,0c4.875,-5.333 10.75,-9.5 17.458,-9.5c8.542,0 13.208,4.042 15.5,10.75c5.917,-6.375 11.667,-10.75 18.5,-10.75c11.583,0 17.125,7.625 17.125,21.958l0,35.625l-9.5,0l0,-34.333c0,-10.542 -3.333,-15.042 -10.417,-15.042c-4.375,0 -8.917,2.875 -14.125,8.667l0,40.708l-9.5,0l0,-34.333c0,-10.542 -3.333,-15.042 -10.542,-15.042c-4.167,0 -8.917,2.875 -14.125,8.667l0,40.708l-9.5,0l0,-56.208l0.125,0.042Z" style="fill:#231f20;fill-rule:nonzero;"/><path d="M772.236,358.459l0,-35.625l9.583,0l0,34.333c0,10.542 3.125,15.042 10.542,15.042c5.792,0 9.833,-2.875 15.167,-9.5l0,-39.917l9.5,0l0,56.208l-7.875,0l-0.792,-8.792l-0.333,0c-5.208,6.125 -10.75,10.167 -18.5,10.167c-11.917,0 -17.25,-7.625 -17.25,-21.958l-0.042,0.042Z" style="fill:#231f20;fill-rule:nonzero;"/><path d="M835.986,322.834l7.875,0l0.792,8.083l0.333,0c5.333,-5.333 11.083,-9.5 18.833,-9.5c11.792,0 17.125,7.625 17.125,21.958l0,35.625l-9.5,0l0,-34.333c0,-10.542 -3.25,-15.042 -10.625,-15.042c-5.792,0 -9.708,3 -15.375,8.667l0,40.708l-9.5,0l0,-56.208l0.042,0.042Z" style="fill:#231f20;fill-rule:nonzero;"/><path d="M934.403,346.417c0,-11.333 -5.083,-17.458 -13.875,-17.458c-7.875,0 -15.042,6.375 -16.208,17.458l30.083,0Zm-39.333,4.625c0,-18.375 12.375,-29.625 25.208,-29.625c14.333,0 22.417,10.292 22.417,26.375c0,1.958 -0.125,4.042 -0.333,5.417l-37.917,0c0.708,11.917 8,19.542 18.75,19.542c5.333,0 9.833,-1.75 14,-4.375l3.333,6.25c-4.875,3.125 -10.875,5.792 -18.5,5.792c-15.042,0 -26.958,-11 -26.958,-29.375" style="fill:#231f20;fill-rule:nonzero;"/><path d="M310.236,364.667c-10.458,0 -15.958,-3.583 -20.833,-6.708c-4.583,-2.958 -8.917,-5.792 -17.708,-5.792c-8.792,0 -13.125,2.792 -17.708,5.792c-4.833,3.167 -10.333,6.708 -20.833,6.708c-10.5,0 -15.958,-3.583 -20.833,-6.708c-4.583,-2.958 -8.917,-5.792 -17.708,-5.792c-8.792,0 -13.083,2.792 -17.667,5.792c-4.833,3.167 -10.333,6.708 -20.792,6.708c-10.458,0 -15.958,-3.583 -20.833,-6.708c-4.583,-2.958 -8.917,-5.792 -17.708,-5.792c-8.792,0 -13.083,2.792 -17.667,5.792c-4.833,3.167 -10.333,6.708 -20.833,6.708c-1.208,0 -2.375,-0.042 -3.5,-0.125c-1.583,-0.125 -2.75,-1.5 -2.625,-3.083c0.125,-1.583 1.5,-2.75 3.083,-2.625c0.958,0.083 2,0.125 3.042,0.125c8.792,0 13.083,-2.792 17.667,-5.792c4.833,-3.167 10.333,-6.708 20.833,-6.708c10.5,0 15.958,3.583 20.833,6.708c4.583,2.958 8.917,5.792 17.667,5.792c8.75,0 13.083,-2.792 17.667,-5.792c4.833,-3.167 10.333,-6.708 20.833,-6.708c10.5,0 15.958,3.583 20.833,6.708c4.583,2.958 8.917,5.792 17.708,5.792c8.792,0 13.125,-2.792 17.708,-5.792c4.833,-3.167 10.333,-6.708 20.833,-6.708c10.5,0 15.958,3.583 20.833,6.708c4.583,2.958 8.917,5.792 17.708,5.792c1.167,0 2.333,-0.042 3.417,-0.167c1.542,-0.167 3,1 3.125,2.583c0.167,1.583 -1,3 -2.583,3.125c-1.25,0.125 -2.583,0.167 -3.958,0.167" style="fill-rule:nonzero;"/><path d="M232.445,388.917c-10.458,0 -15.958,-3.583 -20.833,-6.708c-4.583,-2.958 -8.917,-5.792 -17.708,-5.792c-8.792,0 -13.083,2.792 -17.667,5.792c-4.833,3.167 -10.333,6.708 -20.792,6.708c-10.458,0 -15.958,-3.583 -20.833,-6.708c-4.583,-2.958 -8.917,-5.792 -17.667,-5.792c-8.75,0 -13.083,2.792 -17.667,5.792c-2.792,1.792 -5.625,3.667 -9.458,4.958c-1.5,0.5 -3.125,-0.292 -3.667,-1.792c-0.5,-1.5 0.292,-3.125 1.792,-3.667c3.167,-1.083 5.625,-2.667 8.208,-4.375c4.833,-3.167 10.333,-6.708 20.833,-6.708c10.5,0 15.958,3.583 20.833,6.708c4.583,2.958 8.917,5.792 17.708,5.792c8.792,0 13.083,-2.792 17.667,-5.792c4.833,-3.167 10.333,-6.708 20.833,-6.708c10.5,0 15.958,3.583 20.833,6.708c4.583,2.958 8.917,5.792 17.708,5.792c8.792,0 13.125,-2.792 17.708,-5.792c4.833,-3.167 10.333,-6.708 20.833,-6.708c10.5,0 15.958,3.583 20.833,6.708c3.125,2.042 6.083,3.958 10.333,5c1.542,0.375 2.5,1.917 2.125,3.458c-0.375,1.542 -1.917,2.5 -3.458,2.125c-5.208,-1.25 -8.708,-3.542 -12.083,-5.75c-4.583,-2.958 -8.917,-5.792 -17.708,-5.792c-8.792,0 -13.083,2.792 -17.708,5.792c-4.833,3.167 -10.333,6.708 -20.833,6.708l-0.167,0.042Z" style="fill-rule:nonzero;"/><path d="M233.403,413.167c-10.458,0 -15.958,-3.583 -20.833,-6.708c-4.583,-2.958 -8.917,-5.792 -17.708,-5.792c-8.792,0 -13.083,2.792 -17.667,5.792c-4.833,3.167 -10.333,6.708 -20.792,6.708c-10.458,0 -15.958,-3.583 -20.833,-6.708c-4.583,-2.958 -8.917,-5.792 -17.667,-5.792c-7.125,0 -11.25,1.875 -14.667,3.875c-1.375,0.792 -3.125,0.375 -3.958,-1c-0.792,-1.375 -0.375,-3.125 1,-3.958c3.917,-2.333 9.042,-4.708 17.625,-4.708c10.458,0 15.958,3.583 20.833,6.708c4.583,2.958 8.917,5.792 17.708,5.792c8.792,0 13.083,-2.792 17.667,-5.792c4.833,-3.167 10.333,-6.708 20.833,-6.708c10.5,0 15.958,3.583 20.833,6.708c4.583,2.958 8.917,5.792 17.708,5.792c8.792,0 13.125,-2.792 17.708,-5.792c4.833,-3.125 10.333,-6.708 20.833,-6.708c5.625,0 10.292,1 14.708,3.125c1.042,0.5 2.083,1.083 3.208,1.75c1.375,0.833 1.792,2.583 0.958,3.958c-0.833,1.375 -2.583,1.792 -3.958,0.958c-1,-0.583 -1.875,-1.083 -2.75,-1.5c-3.667,-1.75 -7.417,-2.542 -12.208,-2.542c-8.792,0 -13.083,2.792 -17.708,5.792c-4.833,3.167 -10.333,6.708 -20.833,6.708l-0.042,0.042Z" style="fill-rule:nonzero;"/><path d="M233.278,437.417c-10.458,0 -15.958,-3.583 -20.833,-6.708c-4.583,-2.958 -8.917,-5.792 -17.708,-5.792c-8.792,0 -13.083,2.792 -17.667,5.792c-4.833,3.167 -10.333,6.708 -20.792,6.708c-10.458,0 -15.958,-3.583 -20.833,-6.708c-4.042,-2.625 -7.875,-5.125 -14.667,-5.667c-1.583,-0.125 -2.75,-1.5 -2.625,-3.083c0.125,-1.583 1.542,-2.75 3.083,-2.625c8.25,0.667 13.042,3.792 17.333,6.583c4.583,2.958 8.917,5.792 17.667,5.792c8.75,0 13.083,-2.792 17.667,-5.792c4.833,-3.167 10.333,-6.708 20.833,-6.708c10.5,0 15.958,3.583 20.833,6.708c4.583,2.958 8.917,5.792 17.708,5.792c8.792,0 13.125,-2.792 17.708,-5.792c4.417,-2.875 9.417,-6.083 18.167,-6.625c1.583,-0.083 2.958,1.125 3.042,2.708c0.083,1.583 -1.125,2.958 -2.708,3.042c-7.25,0.458 -11.208,3 -15.417,5.708c-4.833,3.167 -10.333,6.708 -20.833,6.708l0.042,-0.042Z" style="fill-rule:nonzero;"/><path d="M221.861,459.625c-0.375,0 -0.708,-0.083 -1.083,-0.208c-3.167,-1.25 -5.708,-2.917 -8.125,-4.5c-4.583,-2.958 -8.917,-5.792 -17.667,-5.792c-8.75,0 -13.083,2.792 -17.667,5.792c-2.25,1.458 -4.625,3 -7.5,4.208c-1.458,0.625 -3.167,-0.042 -3.792,-1.542c-0.625,-1.458 0.042,-3.167 1.542,-3.792c2.417,-1.042 4.458,-2.333 6.625,-3.75c4.833,-3.167 10.333,-6.708 20.833,-6.708c10.5,0 15.958,3.583 20.833,6.708c2.292,1.5 4.458,2.917 7.125,3.958c1.458,0.583 2.208,2.25 1.625,3.75c-0.458,1.125 -1.542,1.792 -2.667,1.792l-0.083,0.083Z" style="fill-rule:nonzero;"/><path d="M329.028,136.25l-267.833,0l0,176.833c1.125,25.542 9.292,48.75 22.083,69.375c25.292,40.833 68.708,71.625 111.625,90.833c9.708,-3.625 19,-8.5 27.958,-13.625c52.75,-30.167 101.583,-78.792 106.167,-142.792l0,-180.625Zm-5.75,5.75l0,174.625c-2.042,28.458 -13.417,55.583 -33.708,80.667c-17.333,21.417 -41.375,41.25 -69.542,57.333c-6.792,3.875 -15.667,8.708 -24.917,12.417c-28.417,-12.958 -77.958,-40.875 -106.917,-87.625c-13.042,-21.042 -20.167,-43.417 -21.25,-66.5l0,-170.917l256.333,0" style="fill-rule:nonzero;"/><path d="M213.653,52l-38.042,0l0,29.958l-6.833,0.25l-6.083,-27.167l-37.458,3.667l6.125,27.5l-8.583,1.25l-9.25,-27.5l-36.792,3.667l18.792,56.167l198.208,0.125l19.292,-55.667l-37.375,-3.625l-8.583,25.875l-8.667,-0.25l5.5,-26.875l-37.083,-3.75l-5.875,26.917l-7.333,-0.583l0,-29.958l0.042,0Zm-5.833,5.875l0,29.5l5.375,0.458l7.333,0.583l5.083,0.417l1.083,-5l4.792,-21.833l25.417,2.542l-4.208,20.5l-1.417,6.833l6.958,0.208l8.667,0.25l4.375,0.125l1.375,-4.125l7.125,-21.417l25.333,2.458l-15.5,44.708l-189.833,-0.125l-15.125,-45.208l24.833,-2.458l7.75,23.083l1.542,4.625l4.833,-0.708l8.583,-1.25l6.25,-0.917l-1.375,-6.167l-4.708,-21.042l25.708,-2.542l4.958,22.083l1.083,4.75l4.875,-0.167l6.833,-0.25l5.625,-0.208l0,-29.708l26.333,0" style="fill-rule:nonzero;"/><path d="M95.278,181.125l8.667,8.458l-2.042,11.958l10.708,-5.625l10.708,5.625l-2.042,-11.958l8.667,-8.458l-12,-1.75l-5.375,-10.875l-5.375,10.875l-12,1.75l0.083,0Zm35.75,30.875l-18.375,-9.667l-18.375,9.667l3.5,-20.458l-14.875,-14.5l20.542,-3l9.167,-18.583l9.167,18.583l20.542,3l-14.875,14.5l3.5,20.458l0.083,0Z" style="fill-rule:nonzero;"/><path d="M279.153,195.875l10.708,5.625l-2.042,-11.958l8.667,-8.458l-12,-1.75l-5.375,-10.875l-5.375,10.875l-12,1.75l8.667,8.458l-2.042,11.958l10.708,-5.625l0.083,0Zm18.375,16.125l-18.375,-9.667l-18.375,9.667l3.5,-20.458l-14.875,-14.5l20.542,-3l9.167,-18.583l9.167,18.583l20.542,3l-14.875,14.5l3.5,20.458l0.083,0Z" style="fill-rule:nonzero;"/><path d="M314.028,362.375c-0.667,0 -1.375,-0.25 -1.917,-0.708c-0.125,-0.125 -13.667,-12.167 -18.458,-15.625c-1.917,-1.375 -5.208,-3.292 -8.375,-5.083c-3.5,-2 -7.125,-4.083 -9.417,-5.75c-0.375,-0.292 -0.792,-0.625 -1.25,-1c-1.208,-1 -2.542,-2.125 -4.208,-2.542l-9.5,-2.542c-5.042,-1.333 -8.5,-4.333 -9.25,-8l-2.417,-12.208c-0.125,-0.708 -0.375,-1.792 -3.792,-3.125c-3.083,-0.417 -24.042,-3.458 -32.167,-9.417c-1.292,-0.958 -1.542,-2.75 -0.625,-4c0.917,-1.25 2.75,-1.542 4,-0.625c6.125,4.5 23.625,7.583 29.875,8.375c0.208,0 0.417,0.083 0.625,0.167c4.708,1.792 7,4.042 7.708,7.5l2.417,12.208c0.208,1.125 1.917,2.708 5.083,3.542l9.5,2.542c2.917,0.792 4.917,2.458 6.417,3.708c0.333,0.292 0.667,0.542 0.958,0.792c2,1.5 5.5,3.458 8.833,5.417c3.458,1.958 6.708,3.833 8.875,5.417c5.042,3.625 18.333,15.458 18.917,16c1.167,1.042 1.292,2.875 0.25,4.042c-0.583,0.625 -1.375,0.958 -2.167,0.958l0.083,-0.042Z" style="fill:#010101;fill-rule:nonzero;"/><path d="M75.57,361.75c-1.125,0 -2.167,-0.625 -2.625,-1.708c-0.625,-1.458 0,-3.167 1.458,-3.792c24.708,-10.917 33.5,-20.542 37.25,-24.667c0.833,-0.917 1.458,-1.625 2.083,-2.125c2.125,-1.792 5.042,-3.917 9.208,-4.625l18.708,-3.125c2.042,-0.333 3.833,-1.042 5.042,-1.958l14.333,-10.792c1.875,-1.417 4.333,-2.417 7.083,-2.958l13.75,-2.625c2.5,-0.5 4.625,-1.5 5.625,-2.792l5.125,-6.417c4.333,-5.375 15.333,-6.917 22.708,-3.167l0.958,0.5c1.417,0.708 1.958,2.458 1.25,3.875c-0.708,1.417 -2.458,1.958 -3.875,1.25l-0.958,-0.5c-5.25,-2.667 -13.25,-1.333 -15.625,1.625l-5.125,6.417c-1.917,2.375 -5.125,4.083 -9.042,4.833l-13.75,2.625c-1.875,0.375 -3.542,1.042 -4.708,1.917l-14.333,10.792c-2,1.5 -4.583,2.542 -7.542,3.042l-18.708,3.125c-2.75,0.458 -4.708,1.875 -6.458,3.333c-0.333,0.292 -0.917,0.917 -1.542,1.625c-4,4.375 -13.375,14.625 -39.208,26.042c-0.375,0.167 -0.792,0.25 -1.167,0.25l0.083,0Z" style="fill:#010101;fill-rule:nonzero;"/><path d="M144.986,276.875c-1.708,0 -3.083,-1.375 -3.083,-3.083l0,-50c0,-1.292 0.792,-2.417 2,-2.875c1.25,-0.5 3.208,-0.792 6.542,-1.333c3.125,-0.5 7.042,-1.125 9.375,-1.917c0.917,-0.333 1.958,-0.167 2.75,0.375c0.792,0.542 1.292,1.458 1.333,2.458l0.292,8.75l6.208,-1.25l-0.125,-9.958c0,-1.5 1,-2.75 2.458,-3.083l16.417,-3.333c0.917,-0.167 1.833,0.042 2.542,0.625c0.708,0.583 1.125,1.458 1.167,2.375l0.083,8.792l4.875,-0.958l0.167,-10.125c0,-1.458 1.042,-2.708 2.458,-2.958l16,-3.292c0.917,-0.167 1.833,0.042 2.583,0.625c0.708,0.583 1.125,1.458 1.125,2.375l0.292,36.667c0,1.708 -1.375,3.083 -3.083,3.125c-1.708,0 -3.083,-1.375 -3.083,-3.083l-0.25,-32.917l-9.875,2l-0.167,10.167c0,1.458 -1.042,2.708 -2.5,3l-10.958,2.167c-0.917,0.167 -1.833,-0.042 -2.542,-0.625c-0.708,-0.583 -1.125,-1.458 -1.125,-2.375l-0.083,-8.75l-10.25,2.083l0.125,9.958c0,1.5 -1.042,2.792 -2.458,3.083l-12.292,2.458c-0.875,0.167 -1.833,-0.042 -2.542,-0.625c-0.708,-0.583 -1.125,-1.417 -1.167,-2.333l-0.25,-8.542c-2.083,0.458 -4.375,0.792 -6.458,1.125c-1.083,0.167 -2.292,0.375 -3.292,0.542l0,47.583c0,1.708 -1.375,3.083 -3.083,3.083l-0.125,0Z" style="fill-rule:nonzero;"/><path d="M115.736,333.709c-1.708,0 -3.083,-1.375 -3.083,-3.083c0,-7.333 0.083,-20.625 0.167,-32.042c0.083,-11.375 0.167,-22.75 0.167,-30.083c0,-1.458 1,-2.708 2.417,-3l19.042,-4.125c0.917,-0.167 1.833,0 2.583,0.583c0.708,0.583 1.167,1.417 1.167,2.375l0.208,8.875l9.083,-1.75l0,-9.958c0,-1.458 1.042,-2.708 2.458,-3.042l19.667,-4.042c0.958,-0.167 1.917,0.042 2.625,0.667c0.708,0.625 1.125,1.542 1.083,2.5l-0.375,8.583l9.125,-1.875l0.125,-9.958c0,-1.458 1.042,-2.708 2.458,-3l17.25,-3.542c0.917,-0.208 1.833,0.042 2.583,0.625c0.708,0.583 1.125,1.458 1.125,2.375l0,8.708l8.625,-1.833l0.125,-9.833c0,-1.458 1.042,-2.667 2.458,-2.958l19.125,-4.042c0.917,-0.208 1.875,0 2.583,0.625c0.708,0.583 1.125,1.5 1.125,2.417c-0.042,5.875 -0.083,16.875 -0.167,27.833c-0.042,10.583 -0.083,23.042 -0.125,28.75c0,1.708 -1.375,3.042 -3.083,3.042l0,-1.917c-1.708,0 -3.083,0.5 -3.042,-1.208c0.042,-5.667 0.083,-18.125 0.125,-28.708c0,-8.875 0.083,-17.792 0.125,-24l-12.958,2.708l-0.125,9.833c0,1.458 -1.042,2.667 -2.458,2.958l-14.75,3.125c-0.917,0.208 -1.875,0 -2.583,-0.625c-0.708,-0.583 -1.125,-1.458 -1.125,-2.417l0,-8.708l-11.083,2.25l-0.125,9.958c0,1.458 -1.042,2.708 -2.458,3l-15.458,3.208c-0.917,0.208 -1.917,-0.042 -2.625,-0.667c-0.708,-0.625 -1.125,-1.542 -1.083,-2.5l0.375,-8.625l-13.292,2.75l0,10c0,1.5 -1.042,2.75 -2.5,3.042l-15.167,2.917c-0.875,0.167 -1.833,-0.042 -2.542,-0.625c-0.708,-0.583 -1.125,-1.417 -1.125,-2.333l-0.208,-8.792l-12.958,2.833c0,7.292 -0.083,17.458 -0.125,27.625c-0.083,11.375 -0.167,24.667 -0.167,32c0,1.708 -1.375,3.083 -3.083,3.083l-0.125,0.042Z" style="fill-rule:nonzero;"/><path d="M269.778,330.209c-1.708,0 -3.083,-1.375 -3.083,-3.083l0.25,-72.333l-5.792,-1.458l0,7.667c0,0.958 -0.458,1.917 -1.25,2.5c-0.792,0.583 -1.792,0.75 -2.75,0.458l-9.417,-2.875c-1.292,-0.375 -2.167,-1.583 -2.167,-2.958l0,-8.708l-5.958,-1.542l0,24.792c0,1.625 -1.375,3.083 -3.083,3.083c-1.708,0 -3.083,-1.375 -3.083,-3.083l0,-28.75c0,-0.958 0.458,-1.875 1.208,-2.458c0.75,-0.583 1.708,-0.792 2.667,-0.542l12.083,3.125c1.375,0.333 2.292,1.583 2.333,3l0,8.833l3.292,1l0,-7.458c0,-0.958 0.458,-1.833 1.208,-2.417c0.75,-0.583 1.75,-0.792 2.667,-0.542l11.958,3c1.375,0.333 2.333,1.583 2.333,3l-0.25,74.75c0,1.708 -1.375,3.083 -3.083,3.083l-0.083,-0.083Z" style="fill-rule:nonzero;"/><path d="M238.07,227.667c-0.042,1.417 -1.708,2.333 -2.625,2.083l-9.375,-2.333c-1.375,-0.333 -2.333,-1.542 -2.333,-2.958l-0.125,-10.542l-3.458,-0.875c0,2.042 0.083,4.542 0.083,7.042c0.083,4.75 0.125,9.458 0.125,11.125c0,1.667 -1.375,3.083 -3.083,3.083c-1.708,0 -3.083,-1.375 -3.083,-3.083c0,-1.708 -0.083,-6.333 -0.125,-11c-0.083,-4.75 -0.125,-9.458 -0.125,-11.125c0,-0.958 0.458,-1.875 1.208,-2.458c0.75,-0.583 1.75,-0.792 2.667,-0.542l9.667,2.5c1.333,0.333 2.292,1.542 2.333,2.958l0.125,10.5l3.167,0.792l-0.125,-8.833c0,-0.958 0.417,-1.875 1.167,-2.458c0.75,-0.583 1.75,-0.792 2.667,-0.583l9.792,2.375c1.417,0.333 2.375,1.583 2.375,3.042l-0.458,28.042c0,1.708 -1.417,3.042 -3.083,3.042l-0.042,0c-1.708,0 -3.083,-1.417 -3.042,-3.125l0.417,-25.417l-4.292,-0.958" style="fill-rule:nonzero;"/></g></svg>